# xmcd
#
# Track frame offsets:
#	150
#	8379
#	18469
#	32232
#	38584
#	47524
#	56544
#	65157
#	75392
#	84279
#	89749
#	98704
#	105869
#	109309
#	113482
#
# Disc length: 1631 seconds
#
# Revision: 0
# Processed by: cddbd v1.5.2PL0 Copyright (c) Steve Scherf et al.
# Submitted via: EasyCDDAExtractor 16.0.9.1
#
DISCID=a6065d0f
DTITLE=Twin Sisters IP, LLC. - Huge Machines
DYEAR=2006
DGENRE=Country
TTITLE0=Huge Machines Read Along
TTITLE1=Huge Machines Sing Along
TTITLE2=Big Rigs
TTITLE3=She'll Be Comin' Around the Mountain
TTITLE4=A Bulldozer Operator I Will Be
TTITLE5=The Wabash Cannonball
TTITLE6=Down by the Station
TTITLE7=I've Been Working on the Railroad
TTITLE8=Little Wheel A-Turnin'
TTITLE9=John Jacob Jingleheimer Schmidt
TTITLE10=Did You Ever See a Lassie
TTITLE11=Can You Swing Your Arms
TTITLE12=A Sailor Went to Sea
TTITLE13=Row, Row, Row Your Boat
TTITLE14=Huge Machines Read Along With Page-Turn Cues
EXTD=
EXTT0=
EXTT1=
EXTT2=
EXTT3=
EXTT4=
EXTT5=
EXTT6=
EXTT7=
EXTT8=
EXTT9=
EXTT10=
EXTT11=
EXTT12=
EXTT13=
EXTT14=
PLAYORDER=
